<svg xmlns="http://www.w3.org/2000/svg" width="1921" height="1195.5" viewBox="0 0 1921 1195.5">
  <g id="Group_258" data-name="Group 258" transform="translate(1 -2081)">
    <rect id="Rectangle_12" data-name="Rectangle 12" width="1920" height="1195" transform="translate(0 2081)" fill="#f5f8f8"/>
    <path id="Path_163" data-name="Path 163" d="M333.373,771.913c3.63,13.431,19.43,20.64,33.407,15.34q33.543-12.706,67.837-24.561C926.26,593.97,1402.1,584.664,1779.942,719.791c131.82,47.144,304.94-6.306,345.267-130.235.819-2.54,1.637-5.079,2.42-7.619-394.73-164.887-901.952-183.022-1393-14.5A2110.718,2110.718,0,0,0,343.89,747.4c-8.88,5.25-13.056,15.135-10.517,24.51Z" transform="translate(-243.6 2161.552)" fill="#fff"/>
    <path id="Subtraction_2" data-name="Subtraction 2" d="M522.5,686.665h0v-75.98c23.89-23.83,48.882-47.334,74.284-69.862,25.785-22.868,52.68-45.339,79.938-66.792,19.237-15.137,39.031-30.073,58.83-44.393,19.641-14.205,39.818-28.189,59.972-41.562,20-13.271,40.517-26.3,60.985-38.727,20.316-12.335,41.132-24.409,61.869-35.887,20.593-11.4,41.662-22.516,62.623-33.043,20.825-10.459,42.1-20.618,63.249-30.194,21.021-9.52,42.468-18.719,63.746-27.34,21.167-8.577,42.738-16.814,64.113-24.482,21.275-7.632,42.926-14.906,64.351-21.619,21.338-6.686,43.026-12.994,64.46-18.751,21.358-5.736,43.038-11.079,64.44-15.879,21.337-4.786,42.968-9.161,64.291-13,21.275-3.833,42.812-7.239,64.013-10.121,21.167-2.878,42.567-5.312,63.605-7.235,21.02-1.921,42.239-3.383,63.069-4.344s41.823-1.449,62.4-1.449c25.806,0,51.728.766,77.047,2.277.077,2.444.138,4.478.187,6.562a113.383,113.383,0,0,1-1.255,19.565,108.71,108.71,0,0,1-4.565,18.6,114.031,114.031,0,0,1-7.779,17.647,129.352,129.352,0,0,1-10.9,16.7,155.644,155.644,0,0,1-13.923,15.749,194.043,194.043,0,0,1-16.852,14.808,277.492,277.492,0,0,1-42.111,26.814,444.988,444.988,0,0,1-52.686,23.112c-19.024,7.012-40.052,13.556-62.5,19.451-22.15,5.816-46.223,11.143-71.552,15.831-25.03,4.633-51.893,8.755-79.844,12.252-48.572,6.078-91.81,12.38-132.186,19.266-42.446,7.239-80.959,14.989-117.739,23.691-18.645,4.411-37.043,9.13-54.682,14.025-17.819,4.945-35.5,10.246-52.548,15.756-17.16,5.546-34.286,11.5-50.905,17.7-16.672,6.216-33.412,12.892-49.755,19.843s-32.859,14.418-49.1,22.2c-16.181,7.753-32.643,16.084-48.931,24.762-16.176,8.618-32.748,17.882-49.257,27.533-16.332,9.548-33.18,19.814-50.076,30.513-33.3,21.087-67.508,44.246-104.577,70.8-35.219,25.229-72.43,53.1-113.759,85.217Z" transform="translate(-523 2257.168)" fill="#fff" stroke="rgba(0,0,0,0)" stroke-width="1"/>
    <path id="Subtraction_6" data-name="Subtraction 6" d="M979.783,190.368H164.68a805.682,805.682,0,0,1,77.395-30.407c13.714-4.583,27.751-8.856,41.722-12.7,14.133-3.889,28.589-7.448,42.966-10.577a1371.473,1371.473,0,0,1,136.294-22.576A1240.881,1240.881,0,0,1,602.578,106c83.14,0,160.635,9.094,230.332,27.031,18.33,4.717,36.344,10.117,53.54,16.051,17.595,6.073,34.787,12.861,51.1,20.175,14.5,6.5,28.71,13.6,42.229,21.109l0,0h0Z" transform="translate(-163 3085.632)" fill="#fff" stroke="rgba(0,0,0,0)" stroke-width="1"/>
    <path id="Subtraction_8" data-name="Subtraction 8" d="M2060,511.386H1772.329c-12.424-9.89-25.208-19.68-38-29.1-19.664-14.48-40.124-28.665-60.813-42.161s-42.162-26.666-63.816-39.136c-21.692-12.491-44.116-24.6-66.651-35.99-22.607-11.426-45.929-22.435-69.317-32.72-23.47-10.322-47.632-20.19-71.815-29.329-24.291-9.181-49.237-17.867-74.144-25.816-25.049-7.995-50.721-15.457-76.305-22.18-25.737-6.764-52.08-12.961-78.3-18.421-26.389-5.5-53.345-10.387-80.121-14.54-26.98-4.184-54.494-7.729-81.777-10.537-27.5-2.831-55.517-4.988-83.263-6.413-28-1.436-56.456-2.165-84.582-2.165-31.118,0-62.734.891-93.97,2.649-10.587.6-21.252,1.493-31.566,2.361l-.024,0-.135.011-.028,0-.154.013-.752.063-.054,0c-2.877.242-5.853.492-8.774.73-24.493,1.99-49.223,4.553-73.5,7.616-24.1,3.041-48.382,6.654-72.181,10.739-23.655,4.06-47.462,8.694-70.76,13.771-23.129,5.039-46.425,10.662-69.241,16.713-22.632,6-45.384,12.586-67.622,19.567-22.092,6.935-44.266,14.447-65.9,22.329-21.526,7.842-43.089,16.254-64.089,25-20.9,8.707-41.82,17.989-62.175,27.586V288.768c19.883-9.7,40.282-19.158,60.63-28.119,20.436-9,41.385-17.741,62.265-25.986,20.979-8.283,42.455-16.287,63.83-23.79,21.483-7.54,43.462-14.784,65.326-21.529,21.981-6.782,44.441-13.244,66.756-19.206,22.447-6,45.365-11.655,68.117-16.816,22.9-5.195,46.253-10.027,69.409-14.364,23.33-4.37,47.094-8.355,70.633-11.848,29.116-4.311,58.248-7.995,86.587-10.948,29.587-3.083,59.24-5.467,88.134-7.087C900.456,107.035,937.18,106,973.336,106c24.431,0,49.146.472,73.456,1.4,24.156.924,48.592,2.327,72.628,4.17,23.85,1.827,47.98,4.141,71.72,6.877,23.539,2.713,47.336,5.918,70.731,9.525,23.235,3.584,46.672,7.66,69.661,12.116,22.874,4.432,45.924,9.359,68.509,14.645,22.483,5.261,45.119,11.02,67.279,17.117,22.055,6.068,44.249,12.638,65.965,19.529,21.629,6.863,43.355,14.225,64.572,21.882,21.139,7.628,42.369,15.761,63.1,24.176,20.671,8.392,41.377,17.278,61.543,26.411,20.131,9.117,40.287,18.735,59.908,28.587,19.584,9.833,39.162,20.164,58.19,30.7,19,10.527,37.978,21.55,56.393,32.761s36.745,22.9,54.515,34.761,35.443,24.2,52.555,36.7a152.04,152.04,0,0,1,30.594,29.5,134.967,134.967,0,0,1,19.255,33.939A131.4,131.4,0,0,1,2060,511.385Z" transform="translate(-163 2764.614)" fill="#fff" stroke="rgba(0,0,0,0)" stroke-width="1"/>
    <path id="Subtraction_7" data-name="Subtraction 7" d="M1569.374,346.255H1188.392c-8.85-4.864-17.837-9.646-26.711-14.215-14.565-7.5-29.467-14.761-44.291-21.587-15.191-6.993-30.743-13.732-46.226-20.029-15.85-6.445-32.059-12.6-48.179-18.3-16.5-5.835-33.373-11.355-50.153-16.406-17.144-5.164-34.689-9.989-52.146-14.342-17.817-4.444-36.039-8.519-54.159-12.112-18.493-3.667-37.4-6.934-56.193-9.712-19.192-2.836-38.789-5.24-58.246-7.145-19.858-1.945-40.153-3.428-60.321-4.409-20.535-1-41.534-1.508-62.414-1.508-35.335,0-71.612,1.453-107.823,4.32-18.5,1.465-37.38,3.331-56.1,5.544-19.033,2.25-38.4,4.917-57.579,7.925-19.47,3.053-39.344,6.553-59.071,10.4-20.009,3.9-40.388,8.271-60.572,12.975-20.5,4.778-41.392,10.041-62.088,15.643-20.963,5.672-42.367,11.864-63.616,18.4V223.862c30.359-14.374,62.555-27.785,95.692-39.862a1249.691,1249.691,0,0,1,124.895-38.131c23.888-5.962,48.4-11.339,72.869-15.98,26.157-4.963,52.915-9.209,79.532-12.622,28.325-3.632,57.255-6.42,85.985-8.288C651.882,107,682.912,106,713.7,106c19.791,0,39.943.415,59.9,1.232,20.574.845,41.481,2.141,62.14,3.852,21.246,1.757,42.891,4.01,64.333,6.7,22.016,2.76,44.382,6.048,66.478,9.774,22.7,3.828,45.776,8.227,68.575,13.076,23.384,4.974,47.144,10.563,70.621,16.611,24.083,6.2,48.516,13.058,72.62,20.372,24.741,7.506,49.83,15.7,74.571,24.365,44.327,15.515,86.957,31.914,126.707,48.739,38.012,16.088,74.436,33.01,108.259,50.3,28.516,14.575,55.927,29.8,81.471,45.238Z" transform="translate(-163 2929.745)" fill="#fff" stroke="rgba(0,0,0,0)" stroke-width="1"/>
  </g>
</svg>
